<mxfile host="app.diagrams.net" modified="2020-10-08T12:29:00.355Z" agent="5.0 (Macintosh; Intel Mac OS X 10_14_6) AppleWebKit/537.36 (KHTML, like Gecko) Chrome/85.0.4183.121 Safari/537.36" etag="hqpVw95Knnl0wPWbvVri" version="13.1.0" type="github">
  <diagram id="fqST_ARwJXlux_jOwb6Z" name="Page-1">
    <mxGraphModel dx="1186" dy="729" grid="1" gridSize="10" guides="1" tooltips="1" connect="1" arrows="1" fold="1" page="1" pageScale="1" pageWidth="850" pageHeight="1100" math="0" shadow="0">
      <root>
        <mxCell id="0" />
        <mxCell id="1" parent="0" />
        <mxCell id="nABENuuU9GBZ7lE7OjOV-1" value="" style="whiteSpace=wrap;html=1;aspect=fixed;fillColor=#d5e8d4;strokeColor=#82b366;" parent="1" vertex="1">
          <mxGeometry x="20" y="130" width="380" height="380" as="geometry" />
        </mxCell>
        <mxCell id="nABENuuU9GBZ7lE7OjOV-2" value="" style="whiteSpace=wrap;html=1;aspect=fixed;fillColor=#e1d5e7;strokeColor=#9673a6;" parent="1" vertex="1">
          <mxGeometry x="450" y="130" width="380" height="380" as="geometry" />
        </mxCell>
        <mxCell id="dgn4BzvsRX8SlXK5RtXX-2" value="Enterprise" style="text;html=1;strokeColor=none;fillColor=none;align=center;verticalAlign=middle;whiteSpace=wrap;rounded=0;" vertex="1" parent="1">
          <mxGeometry x="575" y="120" width="130" height="80" as="geometry" />
        </mxCell>
        <mxCell id="dgn4BzvsRX8SlXK5RtXX-3" value="OSS" style="text;html=1;strokeColor=none;fillColor=none;align=center;verticalAlign=middle;whiteSpace=wrap;rounded=0;" vertex="1" parent="1">
          <mxGeometry x="160" y="150" width="80" height="20" as="geometry" />
        </mxCell>
      </root>
    </mxGraphModel>
  </diagram>
</mxfile>
